<svg id="icon_instagram.svg" xmlns="http://www.w3.org/2000/svg" width="29" height="29" viewBox="0 0 29 29">
  <defs>
    <style>
      .cls-1 {
        fill: #fff;
        fill-rule: evenodd;
      }
    </style>
  </defs>
  <path id="icon_instagram" data-name="icon_instagram" class="cls-1" d="M1863.98,25h-20.96a4.021,4.021,0,0,0-4.02,4.021V49.978A4.021,4.021,0,0,0,1843.02,54h20.96a4.021,4.021,0,0,0,4.02-4.021V29.021A4.021,4.021,0,0,0,1863.98,25Zm2.73,24.012a3.7,3.7,0,0,1-3.7,3.694h-19.25a3.691,3.691,0,0,1-3.69-3.694V29.761a3.691,3.691,0,0,1,3.69-3.694h19.25a3.7,3.7,0,0,1,3.7,3.694V49.012Zm-13.3-17.074a7.647,7.647,0,1,0,7.65,7.647A7.643,7.643,0,0,0,1853.41,31.938Zm0,14.075a6.542,6.542,0,1,1,6.55-6.542A6.542,6.542,0,0,1,1853.41,46.014Zm9.24-14.1a1.585,1.585,0,1,1-1.59-1.586A1.587,1.587,0,0,1,1862.65,31.91Z" transform="translate(-1839 -25)"/>
</svg>
