<svg id="icon_github.svg" xmlns="http://www.w3.org/2000/svg" width="35" height="35" viewBox="0 0 35 35">
  <defs>
    <style>
      .cls-1 {
        fill: #fff;
        fill-rule: evenodd;
      }
    </style>
  </defs>
  <path id="icon_github" class="cls-1" d="M1914.31,28.686A15.991,15.991,0,1,0,1919,40,15.89,15.89,0,0,0,1914.31,28.686Zm-14.86,25.829a1.35,1.35,0,0,0,.16-0.606c0.01-.237.02-1.339,0.02-2.615V50.1a0.541,0.541,0,0,0-.13-0.366,0.526,0.526,0,0,0-.57-0.151,5.876,5.876,0,0,1-3-.015,2.569,2.569,0,0,1-1.58-1.5c-0.01,0-.01-0.006-0.01-0.009a5.411,5.411,0,0,0-1.52-2.229,0.077,0.077,0,0,1,.08-0.13,2.473,2.473,0,0,1,1.16,1.078,0.068,0.068,0,0,0,.02.037,3.81,3.81,0,0,0,5.33,1.484,0.518,0.518,0,0,0,.24-0.37,3.525,3.525,0,0,1,.55-1.5,0.757,0.757,0,0,0,.08-0.741,0.729,0.729,0,0,0-.61-0.461c-3.4-.385-6.21-1.126-6.19-6.322a4.458,4.458,0,0,1,1.39-3.382,0.542,0.542,0,0,0,.12-0.442c-0.01-.046-0.02-0.1-0.04-0.176a5.848,5.848,0,0,1,.25-3.512c0.87-.051,2.55.869,3.57,1.61a0.539,0.539,0,0,0,.48.075,14.132,14.132,0,0,1,7.51,0,0.518,0.518,0,0,0,.47-0.075c1.02-.741,2.71-1.66,3.57-1.61a5.848,5.848,0,0,1,.25,3.512c-0.02.071-.03,0.13-0.04,0.176a0.542,0.542,0,0,0,.12.442,4.432,4.432,0,0,1,1.4,3.384c0.01,5.182-2.79,5.932-6.17,6.318a0.787,0.787,0,0,0-.64.465,0.749,0.749,0,0,0,.08.723,4.09,4.09,0,0,1,.61,2.281c0.03,1.288.01,2.748-.01,3.815-0.01.687-.02,1.184-0.01,1.4a1.491,1.491,0,0,0,.16.6A14.948,14.948,0,0,1,1899.45,54.516Zm8.44-.394a0.494,0.494,0,0,1-.36-0.056,0.271,0.271,0,0,1-.08-0.206c-0.01-.181,0-0.714.01-1.331,0.02-1.075.04-2.548,0.01-3.858a5.4,5.4,0,0,0-.56-2.446,9.109,9.109,0,0,0,4.36-1.443c1.56-1.173,2.32-3.095,2.31-5.874a5.366,5.366,0,0,0-1.47-3.874,7.053,7.053,0,0,0-.43-4.3,0.546,0.546,0,0,0-.32-0.3,4.17,4.17,0,0,0-3.07.679,15.178,15.178,0,0,0-1.46.882,15.511,15.511,0,0,0-7.66,0,15.178,15.178,0,0,0-1.46-.882,4.163,4.163,0,0,0-3.07-.679,0.5,0.5,0,0,0-.31.3,6.9,6.9,0,0,0-.43,4.3,5.328,5.328,0,0,0-1.48,3.873c-0.01,2.781.75,4.7,2.32,5.875a9.036,9.036,0,0,0,4.35,1.443,4.707,4.707,0,0,0-.43,1.275,2.757,2.757,0,0,1-3.68-1.245,3.6,3.6,0,0,0-2.79-1.827h-0.04a1.183,1.183,0,0,0-1.15.632,1.34,1.34,0,0,0,.75,1.307,0.227,0.227,0,0,0,.07.047,3.777,3.777,0,0,1,1.54,2.025,3.6,3.6,0,0,0,2.33,2.155,7.638,7.638,0,0,0,2.88.143v0.554c0,1.157,0,2.354-.01,2.568a0.315,0.315,0,0,1-.08.206,0.528,0.528,0,0,1-.37.055A14.939,14.939,0,1,1,1907.89,54.122Z" transform="translate(-1885.5 -22.5)"/>
</svg>
