<svg id="icon_twitter.svg" xmlns="http://www.w3.org/2000/svg" width="32" height="25" viewBox="0 0 32 25">
  <defs>
    <style>
      .cls-1 {
        fill: #fff;
        fill-rule: evenodd;
      }
    </style>
  </defs>
  <path id="icon_twitter" data-name="icon_twitter" class="cls-1" d="M1791.19,53a19.114,19.114,0,0,1-10.03-2.612,0.4,0.4,0,0,1,.26-0.735,14.217,14.217,0,0,0,8.13-1.816c-4.33-1.017-5.2-4.229-5.24-4.375a0.389,0.389,0,0,1,.09-0.371,0.43,0.43,0,0,1,.37-0.126,4.358,4.358,0,0,0,1.18-.01c-4.24-2.315-3.88-5.823-3.86-5.982a0.4,0.4,0,0,1,.27-0.333,0.415,0.415,0,0,1,.42.089,2.533,2.533,0,0,0,1.2.59c-3.68-3.62-1.13-8.017-1.1-8.065a0.4,0.4,0,0,1,.31-0.2,0.426,0.426,0,0,1,.35.129,18.692,18.692,0,0,0,12.4,6.307,7.493,7.493,0,0,1-.05-0.82,6.867,6.867,0,0,1,7.04-6.661,7.228,7.228,0,0,1,5.09,2.068,20.693,20.693,0,0,0,3.46-1.413,0.424,0.424,0,0,1,.44.032,0.409,0.409,0,0,1,.15.4,6.142,6.142,0,0,1-1.98,2.7,20.246,20.246,0,0,0,2.34-.8,0.412,0.412,0,0,1,.46.1,0.394,0.394,0,0,1,.07.459,11.15,11.15,0,0,1-2.98,3.313c0.04,2.333-1.6,13.778-11.53,16.962A23.663,23.663,0,0,1,1791.19,53Zm-8.12-2.524a21.1,21.1,0,0,0,15.13.587c9.83-3.151,11.11-14.8,10.95-16.35a0.394,0.394,0,0,1,.17-0.372,11.557,11.557,0,0,0,2.25-2.156,8.789,8.789,0,0,1-2.49.578,0.408,0.408,0,0,1-.37-0.248l-0.08-.172a0.4,0.4,0,0,1,.12-0.479,11.708,11.708,0,0,0,2.01-1.954,15.015,15.015,0,0,1-2.79,1.007,0.4,0.4,0,0,1-.38-0.121,6.4,6.4,0,0,0-4.66-1.981,6.053,6.053,0,0,0-6.22,5.855,5.68,5.68,0,0,0,.12,1.162,0.382,0.382,0,0,1-.08.341,0.393,0.393,0,0,1-.33.145,19.2,19.2,0,0,1-13.08-6.161,5.779,5.779,0,0,0,2.07,7.322,0.383,0.383,0,0,1,.15.429,0.4,0.4,0,0,1-.35.293,4.613,4.613,0,0,1-2.28-.4c0.15,1.167.91,3.448,4.42,4.931a0.4,0.4,0,0,1,.25.389,0.407,0.407,0,0,1-.28.365,7.828,7.828,0,0,1-2,.32c0.46,0.968,1.82,2.925,5.33,3.416a0.419,0.419,0,0,1,.34.286,0.4,0.4,0,0,1-.13.419A13.415,13.415,0,0,1,1783.07,50.476Z" transform="translate(-1781 -28)"/>
</svg>
