<svg id="logo.svg" xmlns="http://www.w3.org/2000/svg" width="180" height="35" viewBox="0 0 180 35">
  <defs>
    <style>
      .cls-1 {
        fill: #fff;
        fill-rule: evenodd;
      }
    </style>
  </defs>
  <path id="logo" data-name="logo" class="cls-1" d="M1207.39,28.353l-1.8,2.626h-6.66V52h28.06V28.353h-19.6Zm-7.25,5.028,5.92-.062,1.93-2.88,16.61,0.03-0.01,5.239-7.04.009a7.757,7.757,0,0,0-9.19.011l-8.23.01Zm18.87,8.5a6.046,6.046,0,1,1-6.05-5.932A5.993,5.993,0,0,1,1219.01,41.879Zm6.19,7.965h-24.47V47.989h8.09a7.758,7.758,0,0,0,8.29,0h8.09v1.855Zm-8.21-7.965a4.031,4.031,0,1,1-4.03-3.953A3.989,3.989,0,0,1,1216.99,41.879Zm6.13-7.154h-3.94V31.984h3.94v2.741Zm-18.8-4.25h-4.19V28.353h4.19v2.122ZM1057.02,49.3V47.512h24.62V49.3h-24.62Zm1.82-16.507V31.085h21.01V32.8h-21.01Zm25.43,5.691V36.973h3.67l-1.41-5.125h-1.73V30.255h6.05v-3h2.14v3h5.62v1.594h-1.31l-1.81,5.125h3.26v1.515h-14.48Zm11.11,11.145h-7.76v1.12h-2.04V41.071h11.87v9.682h-2.07v-1.12Zm-7.76-1.594h7.76V42.612h-7.76v5.428Zm2.34-11.066h3.62l1.61-5.125h-6.59Zm13.96,10.315-0.4-1.726a12.256,12.256,0,0,0,2.4-.138,1.75,1.75,0,0,0,.88-0.573,2.926,2.926,0,0,0,.57-1.212,7.871,7.871,0,0,0,.19-1.884,8.5,8.5,0,0,0-2.31-5.415,1.309,1.309,0,0,1-.14-0.434,0.418,0.418,0,0,1,.03-0.172c0.33-.9.71-2.077,1.13-3.518a13.957,13.957,0,0,0,.64-2.674h-4.56V50.977h-2.04V28.028h8.87l0.31,0.382a38.037,38.037,0,0,1-1.14,3.669,33.25,33.25,0,0,1-1.36,3.577,24.1,24.1,0,0,1,2.07,3.412,6.669,6.669,0,0,1,.59,2.555l0.02,0.356a8.127,8.127,0,0,1-.44,2.853,3.555,3.555,0,0,1-1.28,1.732,3.448,3.448,0,0,1-1.61.653C1105.83,47.265,1105.02,47.289,1103.92,47.289Zm19.75,3.623-0.23-1.845h4.17a3.5,3.5,0,0,0,2.42-.823c0.62-.549,1.01-1.843,1.18-3.88h-18.85v-1.62h18.97q0.09-1.383.09-2.807V39.516h-12.67l-0.17.83h-2.05l1.82-9.353h2.11l-0.42,2.068h13.2v1.528h-13.5l-0.68,3.386h14.54v0.7q0,2.042-.12,4.072h4.15v1.62h-4.27a17.2,17.2,0,0,1-.54,3.406,6.246,6.246,0,0,1-.82,1.56,3.41,3.41,0,0,1-1.37,1.107,4.736,4.736,0,0,1-1.78.441q-0.945.047-2.07,0.046C1126.03,50.924,1124.99,50.92,1123.67,50.912Zm11.38-18.219V29.807h-20.08v3.029h-1.96V28.265h24.06v4.427h-2.02Zm5.04,13.859V44.957h25.58v1.594h-25.58Zm1.15,4.571-0.76-1.489a28.856,28.856,0,0,0,7.75-2.806l1.46,1.318a22.857,22.857,0,0,1-4,1.693A36.824,36.824,0,0,1,1141.24,51.122Zm2.29-7.8V31.941h8.17V30.255h-11.16V28.714h11.16v-1.7h2.13v1.7h11.19v1.541h-11.19v1.686h8.46V43.323h-18.76Zm16.69-9.959h-14.71v1.9h14.71v-1.9Zm0,3.281h-14.71v1.923h14.71V36.644Zm0,3.24h-14.71v1.99h14.71v-1.99Zm3.6,11.093a33.874,33.874,0,0,1-4.31-1.231,21.159,21.159,0,0,1-3.75-1.654l1.28-1.318a31.707,31.707,0,0,0,7.9,2.583Zm3.97-12.489V36.973h3.67l-1.41-5.125h-1.73V30.255h6.05v-3h2.14v3h5.62v1.594h-1.32l-1.8,5.125h3.26v1.515h-14.48Zm11.11,11.145h-7.76v1.12h-2.04V41.071h11.86v9.682h-2.06v-1.12Zm-7.76-1.594h7.76V42.612h-7.76v5.428Zm2.33-11.066h3.63l1.61-5.125h-6.59Zm13.97,10.315-0.4-1.726a12.256,12.256,0,0,0,2.4-.138,1.75,1.75,0,0,0,.88-0.573,2.926,2.926,0,0,0,.57-1.212,7.871,7.871,0,0,0,.19-1.884,8.5,8.5,0,0,0-2.31-5.415,1.309,1.309,0,0,1-.14-0.434,0.418,0.418,0,0,1,.03-0.172c0.33-.9.71-2.077,1.13-3.518a13.957,13.957,0,0,0,.64-2.674h-4.56V50.977h-2.04V28.028h8.87l0.31,0.382a38.037,38.037,0,0,1-1.14,3.669,35.679,35.679,0,0,1-1.36,3.577,24.1,24.1,0,0,1,2.07,3.412,6.669,6.669,0,0,1,.59,2.555l0.01,0.356a8.143,8.143,0,0,1-.43,2.853,3.555,3.555,0,0,1-1.28,1.732,3.448,3.448,0,0,1-1.61.653C1189.35,47.265,1188.54,47.289,1187.44,47.289Z" transform="translate(-1052.015 -22)"/>
</svg>
